<svg width="82" height="28" viewBox="0 0 82 28" fill="none" xmlns="http://www.w3.org/2000/svg">
<mask id="path-1-inside-1_2_1848" fill="white">
<path d="M0 13.7238C0 16.4381 0.804888 19.0915 2.31288 21.3483C3.82087 23.6052 5.96424 25.3642 8.47193 26.403C10.9796 27.4417 13.739 27.7135 16.4012 27.1839C19.0633 26.6544 21.5087 25.3473 23.428 23.428C25.3473 21.5087 26.6544 19.0633 27.1839 16.4012C27.7135 13.739 27.4417 10.9796 26.403 8.47193C25.3642 5.96424 23.6052 3.82087 21.3483 2.31288C19.0915 0.804888 16.4381 0 13.7238 0C10.084 0 6.59333 1.4459 4.01961 4.01961C1.4459 6.59333 0 10.084 0 13.7238Z"/>
</mask>
<path d="M13.7238 0V0.80471V0ZM-0.80471 13.7238C-0.80471 16.5973 0.0473738 19.4062 1.64379 21.7954L2.98197 20.9013C1.5624 18.7767 0.80471 16.279 0.80471 13.7238H-0.80471ZM1.64379 21.7954C3.2402 24.1846 5.50925 26.0468 8.16398 27.1464L8.77988 25.6595C6.41923 24.6817 4.40154 23.0258 2.98197 20.9013L1.64379 21.7954ZM8.16398 27.1464C10.8187 28.246 13.7399 28.5338 16.5582 27.9732L16.2442 26.3947C13.7381 26.8932 11.1405 26.6373 8.77988 25.6595L8.16398 27.1464ZM16.5582 27.9732C19.3764 27.4126 21.9652 26.0289 23.997 23.997L22.859 22.859C21.0522 24.6658 18.7503 25.8962 16.2442 26.3947L16.5582 27.9732ZM23.997 23.997C26.0289 21.9652 27.4126 19.3764 27.9732 16.5582L26.3947 16.2442C25.8962 18.7503 24.6658 21.0522 22.859 22.859L23.997 23.997ZM27.9732 16.5582C28.5338 13.7399 28.246 10.8187 27.1464 8.16398L25.6595 8.77988C26.6373 11.1405 26.8932 13.7381 26.3947 16.2442L27.9732 16.5582ZM27.1464 8.16398C26.0468 5.50925 24.1846 3.2402 21.7954 1.64379L20.9013 2.98197C23.0258 4.40154 24.6817 6.41923 25.6595 8.77988L27.1464 8.16398ZM21.7954 1.64379C19.4062 0.0473738 16.5973 -0.80471 13.7238 -0.80471V0.80471C16.279 0.80471 18.7767 1.5624 20.9013 2.98197L21.7954 1.64379ZM13.7238 -0.80471C9.87061 -0.80471 6.17522 0.725971 3.4506 3.4506L4.58863 4.58863C7.01143 2.16583 10.2975 0.80471 13.7238 0.80471V-0.80471ZM3.4506 3.4506C0.725971 6.17522 -0.80471 9.87061 -0.80471 13.7238H0.80471C0.80471 10.2975 2.16583 7.01143 4.58863 4.58863L3.4506 3.4506Z" fill="white" mask="url(#path-1-inside-1_2_1848)"/>
<path d="M9.97949 5.74782C9.97949 5.32935 10.3187 4.99011 10.7372 4.99011H10.8587V6.61195C10.8587 6.73939 10.7554 6.84269 10.628 6.84269C10.2698 6.84269 9.97949 6.55236 9.97949 6.19422V5.74782Z" fill="white"/>
<path d="M11.7378 4.98987H11.8593C12.2778 4.98987 12.617 5.32911 12.617 5.74758V6.19398C12.617 6.55212 12.3267 6.84245 11.9685 6.84245C11.8411 6.84245 11.7378 6.73914 11.7378 6.61171V4.98987Z" fill="white"/>
<path d="M9.97949 11.8223C9.97949 11.4038 10.3187 11.0646 10.7372 11.0646H10.8587V22.5035H10.7372C10.3187 22.5035 9.97949 22.1643 9.97949 21.7458V11.8223Z" fill="white"/>
<path d="M11.7378 11.064H11.8593C12.2778 11.064 12.617 11.4032 12.617 11.8217V21.7452C12.617 22.1637 12.2778 22.5029 11.8593 22.5029H11.7378V11.064Z" fill="white"/>
<path d="M8.35118 15.501C8.76965 15.501 9.10889 15.8402 9.10889 16.2587L9.10889 16.3802L6.66712 16.3802L6.66712 16.2587C6.66712 15.8402 7.00636 15.501 7.42483 15.501L8.35118 15.501Z" fill="white"/>
<path d="M9.10938 17.2593L9.10937 17.3808C9.10937 17.7993 8.77014 18.1385 8.35167 18.1385L7.42532 18.1385C7.00685 18.1385 6.66761 17.7993 6.66761 17.3808L6.66761 17.2593L9.10938 17.2593Z" fill="white"/>
<path d="M15.171 15.4707C15.5895 15.4707 15.9287 15.8099 15.9287 16.2284L15.9287 16.3499L13.4869 16.3499L13.4869 16.2284C13.4869 15.8099 13.8262 15.4707 14.2447 15.4707L15.171 15.4707Z" fill="white"/>
<path d="M15.9287 17.2291L15.9287 17.3506C15.9287 17.7691 15.5895 18.1083 15.171 18.1083L14.2447 18.1083C13.8262 18.1083 13.4869 17.7691 13.4869 17.3506L13.4869 17.2291L15.9287 17.2291Z" fill="white"/>
<path d="M15.172 7.5575C15.5904 7.5575 15.9297 7.89673 15.9297 8.3152L15.9297 8.43671L6.66677 8.43671L6.66677 8.3152C6.66677 7.89673 7.00601 7.55749 7.42448 7.55749L15.172 7.5575Z" fill="white"/>
<path d="M15.9302 9.3158L15.9302 9.4373C15.9302 9.85578 15.5909 10.195 15.1725 10.195L7.42497 10.195C7.0065 10.195 6.66726 9.85578 6.66726 9.4373L6.66726 9.3158L15.9302 9.3158Z" fill="white"/>
<path fill-rule="evenodd" clip-rule="evenodd" d="M17.9558 7.54114C18.6449 7.54333 19.3963 7.72791 20.075 8.10547C20.3606 8.26434 20.3862 8.64866 20.1551 8.87974L18.8546 10.1803C18.7613 10.2735 18.6207 10.2963 18.4945 10.2582C18.3229 10.2065 18.128 10.1773 17.9072 10.1773H17.5595C17.141 10.1773 16.8018 9.83803 16.8018 9.41956V8.30094C16.8018 7.88403 17.1386 7.54544 17.5555 7.54324L17.9558 7.54114ZM19.6262 11.8902C19.6262 11.6668 19.5812 11.3992 19.4708 11.1426C19.4131 11.0085 19.4294 10.8488 19.5327 10.7456L20.8207 9.45757C21.0428 9.23544 21.4103 9.24824 21.5783 9.51366C21.9905 10.1649 22.2471 10.9827 22.2471 11.9752C22.2471 12.1865 22.0758 12.3579 21.8645 12.3579H20.0939C19.8356 12.3579 19.6262 12.1485 19.6262 11.8902ZM18.8288 8.85614C18.8288 9.1916 18.5569 9.46355 18.2214 9.46355C17.886 9.46355 17.614 9.1916 17.614 8.85614C17.614 8.52068 17.886 8.24874 18.2214 8.24874C18.5569 8.24874 18.8288 8.52068 18.8288 8.85614ZM20.8893 11.7184C21.2248 11.7184 21.4967 11.4464 21.4967 11.111C21.4967 10.7755 21.2248 10.5036 20.8893 10.5036C20.5539 10.5036 20.2819 10.7755 20.2819 11.111C20.2819 11.4464 20.5539 11.7184 20.8893 11.7184Z" fill="white"/>
<path fill-rule="evenodd" clip-rule="evenodd" d="M17.9558 18.1084C18.6449 18.1062 19.3963 17.9216 20.075 17.5441C20.3606 17.3852 20.3862 17.0009 20.1551 16.7698L18.8546 15.4692C18.7613 15.376 18.6207 15.3533 18.4945 15.3913C18.3229 15.4431 18.128 15.4723 17.9072 15.4723H17.5595C17.141 15.4723 16.8018 15.8115 16.8018 16.23V17.3486C16.8018 17.7655 17.1386 18.1041 17.5555 18.1063L17.9558 18.1084ZM19.6262 13.7594C19.6262 13.9827 19.5812 14.2504 19.4708 14.5069C19.4131 14.6411 19.4294 14.8007 19.5327 14.904L20.8207 16.192C21.0428 16.4141 21.4103 16.4013 21.5783 16.1359C21.9905 15.4847 22.2471 14.6668 22.2471 13.6743C22.2471 13.463 22.0758 13.2917 21.8645 13.2917H20.0939C19.8356 13.2917 19.6262 13.5011 19.6262 13.7594ZM18.8288 16.7933C18.8288 16.4578 18.5569 16.1859 18.2214 16.1859C17.886 16.1859 17.614 16.4578 17.614 16.7933C17.614 17.1287 17.886 17.4007 18.2214 17.4007C18.5569 17.4007 18.8288 17.1287 18.8288 16.7933ZM20.8893 13.931C21.2248 13.931 21.4967 14.203 21.4967 14.5384C21.4967 14.8739 21.2248 15.1458 20.8893 15.1458C20.5539 15.1458 20.2819 14.8739 20.2819 14.5384C20.2819 14.203 20.5539 13.931 20.8893 13.931Z" fill="white"/>
<path d="M47.541 4.3981C46.5957 3.91976 45.5475 3.68064 44.4883 3.70172H41.1266C40.9816 3.70172 40.8405 3.70172 40.7012 3.71317H35.3489C35.2159 3.71317 35.0882 3.76604 34.9941 3.86014C34.9 3.95424 34.8472 4.08187 34.8472 4.21495V6.52159V15.5078V18.3181V21.2368C34.8472 21.3501 34.8922 21.4588 34.9723 21.539C35.0525 21.6191 35.1612 21.6641 35.2745 21.6641H37.8235C37.8798 21.6641 37.9355 21.653 37.9875 21.6314C38.0394 21.6098 38.0866 21.5782 38.1264 21.5383C38.1661 21.4984 38.1975 21.4511 38.2189 21.399C38.2402 21.3469 38.2511 21.2911 38.2509 21.2348V18.7321C38.2509 18.6223 38.2945 18.517 38.3721 18.4394C38.4498 18.3617 38.5551 18.3181 38.6649 18.3181H44.4292C46.2099 18.3181 47.6338 17.8093 48.701 16.7918C49.7681 15.7742 50.3023 14.4355 50.3036 12.7757V9.26705C50.3234 8.25102 50.0739 7.24784 49.5805 6.35942C49.1045 5.52096 48.3944 4.8394 47.5372 4.3981H47.541ZM47.0411 12.5582C47.0411 13.4129 46.8039 14.1042 46.3295 14.6321C46.094 14.8946 45.8034 15.1018 45.4786 15.239C45.1537 15.3762 44.8025 15.44 44.4502 15.4257H38.6401C38.5389 15.4257 38.4418 15.3855 38.3702 15.314C38.2987 15.2424 38.2585 15.1454 38.2585 15.0442V6.98712C38.2585 6.88592 38.2987 6.78886 38.3702 6.7173C38.4418 6.64574 38.5389 6.60554 38.6401 6.60554H41.0351C41.1171 6.60554 41.2029 6.596 41.2907 6.596H44.4864C44.8369 6.58159 45.1861 6.64533 45.5088 6.78261C45.8316 6.91989 46.1197 7.12725 46.3524 7.38968C46.8141 7.92198 47.0468 8.61074 47.0468 9.46357L47.0411 12.5582Z" fill="white"/>
<path d="M61.1778 10.8764L66.0296 4.27893C66.0718 4.2252 66.0981 4.16067 66.1054 4.09272C66.1126 4.02477 66.1007 3.95614 66.0709 3.89466C66.041 3.83319 65.9945 3.78134 65.9366 3.74504C65.8787 3.70874 65.8117 3.68946 65.7434 3.68939H63.162C62.9518 3.68755 62.7438 3.73307 62.5536 3.82258C62.3633 3.91209 62.1957 4.04328 62.0631 4.20643L58.7033 8.4038L55.3454 4.20643C55.2125 4.04313 55.0445 3.91186 54.8539 3.82235C54.6633 3.73285 54.455 3.6874 54.2445 3.68939H51.665C51.5967 3.68944 51.5298 3.70879 51.472 3.74522C51.4142 3.78165 51.3678 3.83368 51.3383 3.8953C51.3088 3.95693 51.2973 4.02564 51.3052 4.09351C51.313 4.16139 51.3399 4.22567 51.3827 4.27893L56.2345 10.8764L51.1614 17.7353C51.1191 17.789 51.0929 17.8536 51.0856 17.9215C51.0783 17.9895 51.0902 18.0581 51.1201 18.1196C51.1499 18.1811 51.1964 18.2329 51.2544 18.2692C51.3123 18.3055 51.3792 18.3248 51.4475 18.3249H54.0537C54.2644 18.3269 54.4728 18.2818 54.6636 18.1926C54.8545 18.1034 55.0229 17.9726 55.1565 17.8097L58.6975 13.3395L62.2462 17.8097C62.3795 17.9725 62.5476 18.1032 62.7381 18.1924C62.9286 18.2815 63.1367 18.3268 63.3471 18.3249H65.9571C66.0254 18.3248 66.0923 18.3055 66.1501 18.269C66.2079 18.2326 66.2543 18.1806 66.2838 18.1189C66.3133 18.0573 66.3248 17.9886 66.317 17.9207C66.3091 17.8529 66.2822 17.7886 66.2395 17.7353L61.1778 10.8764Z" fill="white"/>
<path d="M81.2798 6.35859C80.8038 5.52013 80.0937 4.83857 79.2364 4.39727C78.2913 3.91871 77.243 3.67958 76.1838 3.70089H72.8164C71.7572 3.67982 70.709 3.91893 69.7637 4.39727C68.9058 4.83766 68.1955 5.51944 67.7204 6.35859C67.2261 7.24667 66.9766 8.25009 66.9973 9.26623V12.7863C66.9973 14.4525 67.527 15.7912 68.5866 16.8024C69.6461 17.8136 71.0452 18.3224 72.7839 18.3287H76.1247C77.9054 18.3287 79.3299 17.82 80.3983 16.8024C81.4668 15.7849 82.0003 14.4462 81.9991 12.7863V9.26623C82.0197 8.25009 81.7702 7.24667 81.276 6.35859H81.2798ZM78.7347 12.586C78.7347 13.4579 78.4962 14.1619 78.0097 14.6999C77.7709 14.9672 77.4761 15.1784 77.1463 15.3186C76.8165 15.4587 76.4599 15.5244 76.1018 15.5108H72.8202C72.4719 15.5222 72.1254 15.4553 71.8064 15.3149C71.4875 15.1746 71.2041 14.9644 70.9772 14.6999C70.5015 14.1619 70.2642 13.4572 70.2655 12.586V9.43412C70.2655 8.56602 70.5021 7.86392 70.9772 7.32017C71.2145 7.05136 71.5091 6.83916 71.8393 6.69917C72.1695 6.55918 72.5268 6.49496 72.8851 6.51123H76.1399C76.4981 6.49592 76.8551 6.56057 77.1851 6.7005C77.5151 6.84043 77.8098 7.05211 78.0478 7.32017C78.5172 7.86392 78.7537 8.56602 78.7537 9.43412L78.7347 12.586Z" fill="white"/>
<path d="M68.4009 20.3721H67.4277V19.8521H69.979V20.3721H69.0058V22.8891H68.4009V20.3721Z" fill="white"/>
<path d="M70.6328 22.7786C70.4592 22.6844 70.3158 22.5429 70.2193 22.3706C70.1188 22.1831 70.0684 21.9729 70.073 21.7603V20.9784C70.0684 20.7664 70.1188 20.5567 70.2193 20.37C70.3152 20.1972 70.4588 20.0555 70.6328 19.9619C70.8183 19.8611 71.0265 19.8095 71.2377 19.812H71.7017C71.9149 19.8077 72.1256 19.858 72.3138 19.9583C72.4877 20.0516 72.6307 20.1933 72.7255 20.3663C72.826 20.5531 72.8763 20.7628 72.8717 20.9748V21.7567C72.8763 21.9693 72.826 22.1795 72.7255 22.3669C72.6302 22.5396 72.4873 22.6812 72.3138 22.775C72.1254 22.8746 71.9147 22.9244 71.7017 22.9195H71.2377C71.0252 22.9246 70.815 22.8749 70.6274 22.775L70.6328 22.7786ZM71.7107 22.3904C71.7882 22.3933 71.8654 22.3785 71.9364 22.3472C72.0074 22.316 72.0704 22.269 72.1206 22.2099C72.2292 22.0755 72.2845 21.9058 72.2759 21.7332V21.0109C72.2843 20.8378 72.2291 20.6676 72.1206 20.5325C72.0705 20.4732 72.0075 20.4262 71.9365 20.3949C71.8655 20.3636 71.7883 20.3489 71.7107 20.3519H71.2377C71.1601 20.3492 71.083 20.364 71.012 20.3952C70.9411 20.4265 70.8781 20.4734 70.8278 20.5325C70.7204 20.6682 70.6653 20.838 70.6725 21.0109V21.7332C70.6647 21.9057 70.7199 22.0751 70.8278 22.2099C70.8781 22.2689 70.9411 22.3158 71.012 22.3471C71.083 22.3783 71.1601 22.3932 71.2377 22.3904H71.7107Z" fill="white"/>
<path d="M75.2443 22.8888L74.2332 21.6141L73.9389 21.9264V22.8888H73.334V19.8518H73.9389V21.1627L75.1576 19.8518H75.9015L74.6394 21.1843L75.981 22.8888H75.2443Z" fill="white"/>
<path d="M76.3529 22.7768C76.3132 22.7388 76.282 22.6927 76.2615 22.6416C76.2409 22.5905 76.2315 22.5357 76.2337 22.4807V19.85H78.581V20.3718H76.835V21.076H78.4384V21.5978H76.835V22.3706H78.5702V22.8816H76.6544C76.5419 22.886 76.4322 22.8458 76.3493 22.7696" fill="white"/>
<path d="M78.9868 19.8518H79.5249L80.9964 21.9174V19.8518H81.5887V22.8888H81.0506L79.5772 20.8232V22.8888H78.9868V19.8518Z" fill="white"/>
</svg>
